# xmcd CD database file
#
# Track frame offsets:
#	150
#	12778
#	27315
#	40553
#	53928
#	68203
#	81053
#	94515
#	108703
#	121378
#	135490
#	150128
#	163028
#	175128
#	186865
#
# Disc length: 2651 seconds
#
# Revision: 0
# Processed by: cddbd v1.4PL0 Copyright (c) Steve Scherf et al.
# Submitted via: CDex 1.40Beta9
#
DISCID=b30a590f
DTITLE=Various Artist - Roots of Country - Disk 1
DYEAR=1900
DGENRE=Country
TTITLE0="The Little Old Cabin in the Lane," Fiddlin' John Carson
TTITLE1="The Wreck on the Southern Old '97," Henry Whitter 
TTITLE2="(She Was Always) Chewing Gum," Uncle Dave Macon
TTITLE3="Soldier's Joy," Gid Tanner and His Skillet Lickers
TTITLE4="The Sinking of the Titantic," Ernest Stoneman 
TTITLE5="Lovesick Blues," Emmett Miller 
TTITLE6="Blue Yodel No. 8 (Mule Skinner Blues)," Jimmie Rodgers 
TTITLE7="Can the Circle Be Unbroken," Carter Family 
TTITLE8="Silver Haired Daddy of Mine," Gene Autry 
TTITLE9="I Want To Be a Cowboy's Sweetheart," Patsy Montana 
TTITLE10="Tumbling Tumbleweeds," Sons of the Pioneers 
TTITLE11="You Are My Sunshine," Jimmie Davis 
TTITLE12="Take Me Back to Tulsa," Bob Wills and His Texas Playboys 
TTITLE13="Wabash Cannonball," Roy Acuff 
TTITLE14="Mountain Dew," Grandpa Jones 
EXTD=ID3G: 2
EXTT0=
EXTT1=
EXTT2=
EXTT3=
EXTT4=
EXTT5=
EXTT6=
EXTT7=
EXTT8=
EXTT9=
EXTT10=
EXTT11=
EXTT12=
EXTT13=
EXTT14=
PLAYORDER=
